<svg xmlns="http://www.w3.org/2000/svg" width="23" height="23"><path fill-rule="evenodd" fill="#323232" d="M15.325 15.333c-4.189 0-7.585-3.433-7.585-7.666C7.74 3.433 11.136 0 15.325 0c4.187 0 7.585 3.433 7.585 7.667 0 4.233-3.398 7.666-7.585 7.666zm0-13.8c-3.346 0-6.068 2.751-6.068 6.134 0 3.382 2.722 6.133 6.068 6.133 3.346 0 6.068-2.751 6.068-6.133 0-3.383-2.722-6.134-6.068-6.134zm-5.6 13.662l-7.549 7.623-.012-.011a.748.748 0 01-.492.193.757.757 0 01-.566-1.262l-.001-.005.013-.015c.014-.017.027-.028.043-.043l7.372-7.441c.371.35.768.675 1.192.961z"/></svg>